<svg width="60" height="144" viewBox="0 0 60 144" fill="none" xmlns="http://www.w3.org/2000/svg">
<path d="M0.356476 48.3792L48.2555 50.0964V138.919L59.6922 140.066V143.585L1.11157 137.561V134.19L11.5843 135.24V52.1799L0.356476 51.7489V48.3792ZM29.4753 36.2239C22.5459 36.0427 17.6567 34.2085 14.7583 30.7303C11.8724 27.2672 10.4335 23.0275 10.4335 17.9968C10.4335 12.9691 11.9983 8.82911 15.1439 5.56543C18.3018 2.28945 23.1317 0.644067 29.6729 0.643799C36.2745 0.643618 41.3343 2.15679 44.8211 5.18924C48.322 8.24025 50.0809 12.586 50.0809 18.2175C50.0809 23.849 48.3884 28.3147 45.0226 31.6001C41.6695 34.8722 36.4735 36.4069 29.4753 36.2239Z" fill="white"/>
</svg>
