<svg width="180" height="180" viewBox="0 0 180 180" fill="none" xmlns="http://www.w3.org/2000/svg">
<path d="M90 0C139.706 0 180 40.2947 180 90C180 139.706 139.706 180 90 180C40.2947 180 0 139.706 0 90C0 40.2945 40.2947 0 90 0ZM90 160.435C128.905 160.435 160.435 128.896 160.435 90C160.435 51.1042 128.905 19.5654 90 19.5654C51.0947 19.5654 19.5654 51.1042 19.5654 90C19.5654 128.896 51.0947 160.435 90 160.435ZM72.3912 52.337H107.609V92.3478L129.619 92.3478L90 129.619L50.3804 92.3478H72.3912V52.337Z" fill="#CCCCFF"/>
</svg>
