<svg width="14" height="14" viewBox="0 0 14 14" fill="none" xmlns="http://www.w3.org/2000/svg">
<path d="M5.58616 6.9994L4.0415 5.45474C3.47174 5.69634 2.8357 5.73225 2.24237 5.55632C1.64904 5.3804 1.13537 5.00358 0.7894 4.49046C0.44343 3.97734 0.2867 3.35986 0.346072 2.74385C0.405443 2.12784 0.677218 1.55166 1.11482 1.11406C1.55242 0.676459 2.1286 0.404683 2.74461 0.345312C3.36062 0.285941 3.9781 0.442671 4.49122 0.788641C5.00434 1.13461 5.38116 1.64828 5.55708 2.24161C5.73301 2.83494 5.6971 3.47098 5.4555 4.04074L7.00016 5.58607L11.2495 1.33607C11.3733 1.2122 11.5203 1.11394 11.6821 1.0469C11.8439 0.97986 12.0174 0.945355 12.1925 0.945355C12.3676 0.945355 12.5411 0.97986 12.7029 1.0469C12.8647 1.11394 13.0117 1.2122 13.1355 1.33607L13.6068 1.8074L5.4555 9.95807C5.6971 10.5278 5.73301 11.1639 5.55708 11.7572C5.38116 12.3505 5.00434 12.8642 4.49122 13.2102C3.9781 13.5561 3.36062 13.7129 2.74461 13.6535C2.1286 13.5941 1.55242 13.3223 1.11482 12.8847C0.677218 12.4471 0.405443 11.871 0.346072 11.255C0.2867 10.639 0.44343 10.0215 0.7894 9.50835C1.13537 8.99522 1.64904 8.61841 2.24237 8.44248C2.8357 8.26655 3.47174 8.30247 4.0415 8.54407L5.58683 6.9994H5.58616ZM3.00016 4.33274C3.35378 4.33274 3.69292 4.19226 3.94297 3.94221C4.19302 3.69216 4.3335 3.35303 4.3335 2.9994C4.3335 2.64578 4.19302 2.30664 3.94297 2.05659C3.69292 1.80655 3.35378 1.66607 3.00016 1.66607C2.64654 1.66607 2.3074 1.80655 2.05735 2.05659C1.80731 2.30664 1.66683 2.64578 1.66683 2.9994C1.66683 3.35303 1.80731 3.69216 2.05735 3.94221C2.3074 4.19226 2.64654 4.33274 3.00016 4.33274ZM3.00016 12.3327C3.35378 12.3327 3.69292 12.1923 3.94297 11.9422C4.19302 11.6922 4.3335 11.353 4.3335 10.9994C4.3335 10.6458 4.19302 10.3066 3.94297 10.0566C3.69292 9.80655 3.35378 9.66607 3.00016 9.66607C2.64654 9.66607 2.3074 9.80655 2.05735 10.0566C1.80731 10.3066 1.66683 10.6458 1.66683 10.9994C1.66683 11.353 1.80731 11.6922 2.05735 11.9422C2.3074 12.1923 2.64654 12.3327 3.00016 12.3327ZM9.35683 7.9414L13.6068 12.1921L13.1355 12.6634C13.0117 12.7873 12.8647 12.8855 12.7029 12.9526C12.5411 13.0196 12.3676 13.0541 12.1925 13.0541C12.0174 13.0541 11.8439 13.0196 11.6821 12.9526C11.5203 12.8855 11.3733 12.7873 11.2495 12.6634L7.94283 9.35607L9.35616 7.9414H9.35683ZM9.66683 6.33274H11.0002V7.66607H9.66683V6.33274ZM12.3335 6.33274H13.6668V7.66607H12.3335V6.33274ZM3.00016 6.33274H4.3335V7.66607H3.00016V6.33274ZM0.333496 6.33274H1.66683V7.66607H0.333496V6.33274Z" fill="white"/>
</svg>
