<svg width="180" height="180" viewBox="0 0 180 180" fill="none" xmlns="http://www.w3.org/2000/svg">
<path d="M127.924 154.286C135.025 154.286 140.782 148.529 140.782 141.428C140.782 134.328 135.025 128.571 127.924 128.571C120.824 128.571 115.067 134.328 115.067 141.428C115.067 148.529 120.824 154.286 127.924 154.286Z" fill="#CCCCFF"/>
<path d="M178.566 138.08C174.594 127.961 167.74 119.229 158.853 112.968C149.966 106.707 139.437 103.192 128.571 102.858C117.706 103.192 107.177 106.707 98.2898 112.968C89.4028 119.229 82.5486 127.961 78.5765 138.08L77.1429 141.429L78.5765 144.779C82.5486 154.898 89.4028 163.629 98.2898 169.89C107.177 176.151 117.706 179.667 128.571 180.001C139.437 179.667 149.966 176.151 158.853 169.89C167.74 163.629 174.594 154.898 178.566 144.779L180 141.429L178.566 138.08ZM128.571 167.144C123.486 167.144 118.514 165.635 114.285 162.81C110.057 159.984 106.761 155.968 104.815 151.27C102.868 146.571 102.359 141.401 103.351 136.413C104.343 131.425 106.793 126.843 110.389 123.247C113.985 119.65 118.567 117.201 123.555 116.209C128.543 115.217 133.713 115.726 138.412 117.672C143.111 119.619 147.127 122.914 149.952 127.143C152.778 131.372 154.286 136.343 154.286 141.429C154.277 148.247 151.565 154.782 146.745 159.603C141.924 164.423 135.389 167.135 128.571 167.144ZM32.1429 96.4293H64.2858V109.286H32.1429V96.4293ZM32.1429 64.2864H109.286V77.1436H32.1429V64.2864ZM32.1429 32.1436H109.286V45.0007H32.1429V32.1436Z" fill="#CCCCFF"/>
<path d="M128.571 0H12.8571C9.45034 0.0101747 6.18599 1.36803 3.77701 3.77701C1.36803 6.18599 0.0101747 9.45035 0 12.8571V167.143C0.0101747 170.55 1.36803 173.814 3.77701 176.223C6.18599 178.632 9.45034 179.99 12.8571 180H64.2857V167.143H12.8571V12.8571H128.571V83.5714H141.428V12.8571C141.418 9.45035 140.06 6.18599 137.651 3.77701C135.243 1.36803 131.978 0.0101747 128.571 0Z" fill="#CCCCFF"/>
</svg>
