<svg width="69" height="68" viewBox="0 0 69 68" fill="none" xmlns="http://www.w3.org/2000/svg">
<path d="M52.2779 30.4446C60.1326 30.4446 66.5001 24.0771 66.5001 16.2223C66.5001 8.36755 60.1326 2 52.2779 2C44.4232 2 38.0557 8.36755 38.0557 16.2223C38.0557 24.0771 44.4232 30.4446 52.2779 30.4446Z" fill="#2B2BFF"/>
<path d="M27.3889 5.77739C28.4935 5.77739 29.3889 4.88196 29.3889 3.77739C29.3889 2.67282 28.4935 1.77739 27.3889 1.77739V5.77739ZM27.3889 30.6664C28.4935 30.6664 29.3889 29.771 29.3889 28.6664C29.3889 27.5619 28.4935 26.6664 27.3889 26.6664V30.6664ZM9.61111 43.111H59.3889V39.111H9.61111V43.111ZM59.3889 43.111C62.2117 43.111 64.5 45.3993 64.5 48.2221H68.5C68.5 43.1902 64.4208 39.111 59.3889 39.111V43.111ZM64.5 48.2221V58.8888H68.5V48.2221H64.5ZM64.5 58.8888C64.5 61.7117 62.2117 64 59.3889 64V68C64.4208 68 68.5 63.9208 68.5 58.8888H64.5ZM59.3889 64H9.61111V68H59.3889V64ZM9.61111 64C6.78833 64 4.5 61.7117 4.5 58.8888H0.5C0.5 63.9208 4.57917 68 9.61111 68V64ZM4.5 58.8888V48.2221H0.5V58.8888H4.5ZM4.5 48.2221C4.5 45.3993 6.78833 43.111 9.61111 43.111V39.111C4.57917 39.111 0.5 43.1902 0.5 48.2221H4.5ZM27.3889 1.77739H9.61111V5.77739H27.3889V1.77739ZM9.61111 1.77739C4.57917 1.77739 0.5 5.85661 0.5 10.8885H4.5C4.5 8.06572 6.78833 5.77739 9.61111 5.77739V1.77739ZM0.5 10.8885V21.5553H4.5V10.8885H0.5ZM0.5 21.5553C0.5 26.5871 4.57916 30.6664 9.61111 30.6664V26.6664C6.78835 26.6664 4.5 24.378 4.5 21.5553H0.5ZM9.61111 30.6664H27.3889V26.6664H9.61111V30.6664ZM52.2779 32.4446C61.2372 32.4446 68.5001 25.1816 68.5001 16.2223H64.5001C64.5001 22.9725 59.028 28.4446 52.2779 28.4446V32.4446ZM68.5001 16.2223C68.5001 7.26299 61.2372 0 52.2779 0V4C59.028 4 64.5001 9.4721 64.5001 16.2223H68.5001ZM52.2779 0C43.3186 0 36.0557 7.26299 36.0557 16.2223H40.0557C40.0557 9.4721 45.5277 4 52.2779 4V0ZM36.0557 16.2223C36.0557 25.1816 43.3186 32.4446 52.2779 32.4446V28.4446C45.5277 28.4446 40.0557 22.9725 40.0557 16.2223H36.0557Z" fill="#2B2B2B"/>
</svg>
