<svg width="61" height="64" viewBox="0 0 61 64" fill="none" xmlns="http://www.w3.org/2000/svg">
<path d="M30.2761 0.000480145C31.3241 0.000480145 32.3561 0.0684801 33.3161 0.22848C34.2616 0.352371 35.1944 0.558485 36.1041 0.84448C37.0161 1.12048 37.9081 1.46448 38.8001 1.89648C39.6681 2.30848 40.5601 2.81248 41.4521 3.36048C42.9601 4.32048 44.4441 5.09648 45.9561 5.71648C48.9327 6.90781 52.0802 7.61672 55.2801 7.81648C56.9041 7.93248 58.5721 8.00048 60.3081 8.00048V24.0005C60.3081 27.0405 59.9201 29.9205 59.1441 32.6645C58.3987 35.3693 57.3395 37.9777 55.9881 40.4365C54.6424 42.8918 53.0502 45.2037 51.2361 47.3365C49.3942 49.5177 47.3998 51.5655 45.2681 53.4645C43.1082 55.369 40.8332 57.139 38.4561 58.7645C36.0801 60.4125 33.6801 61.9445 31.2801 63.3365L30.3201 63.9085L29.3601 63.3365C26.8929 61.9081 24.483 60.3829 22.1361 58.7645C19.7457 57.1574 17.4695 55.3865 15.3241 53.4645C13.1936 51.5655 11.2006 49.5176 9.36009 47.3365C7.55086 45.1947 5.95152 42.8841 4.58409 40.4365C3.25582 37.9668 2.1977 35.361 1.42809 32.6645C0.647169 29.8434 0.262152 26.9275 0.28409 24.0005V8.00048C2.02409 8.00048 3.69209 7.93248 5.31609 7.81648C6.91473 7.70544 8.50303 7.47682 10.0681 7.13248C11.6001 6.78848 13.1321 6.33248 14.6401 5.71648C16.2049 5.08494 17.7052 4.30399 19.1201 3.38448C20.8801 2.24048 22.6641 1.39648 24.4241 0.84048C26.3195 0.259407 28.2937 -0.0239659 30.2761 0.000480145ZM56.2841 11.9325C53.2562 11.7856 50.2565 11.2793 47.3481 10.4245C44.4551 9.5615 41.6995 8.29145 39.1641 6.65248C37.849 5.78926 36.4208 5.11218 34.9201 4.64048C33.421 4.18742 31.8621 3.96356 30.2961 3.97648C28.7185 3.96628 27.1481 4.19004 25.6361 4.64048C24.1332 5.09685 22.7068 5.77498 21.4041 6.65248C18.8643 8.30039 16.1016 9.57601 13.2001 10.4405C10.3641 11.2645 7.39609 11.7685 4.28409 11.9525V24.0205C4.28409 26.6725 4.62809 29.2085 5.31609 31.6525C6.01699 34.0752 6.98283 36.4134 8.19609 38.6245C9.42389 40.8586 10.871 42.965 12.5161 44.9125C14.1841 46.8765 15.9641 48.7045 17.8841 50.4405C19.8041 52.1805 21.8161 53.7805 23.9201 55.2645C26.0441 56.7525 28.1721 58.1005 30.2961 59.3325C32.471 58.0664 34.5915 56.7091 36.6521 55.2645C38.77 53.7852 40.7926 52.174 42.7081 50.4405C44.6281 48.7045 46.4121 46.8765 48.0801 44.9125C49.7253 42.9651 51.1725 40.8587 52.4001 38.6245C53.608 36.4161 54.5595 34.0769 55.2361 31.6525C55.945 29.1709 56.2978 26.6013 56.2841 24.0205V11.9325Z" fill="#2B2BFF"/>
<path fill-rule="evenodd" clip-rule="evenodd" d="M45.1881 18.8363L43.4281 17.3243L41.8041 17.4643L24.3641 38.0563L18.4241 29.5763L16.8241 29.3043L14.9721 30.6283L14.6961 32.2283L22.3321 43.1323L23.2001 43.6123L25.0281 43.7243L25.9641 43.3163L45.3041 20.4563L45.1881 18.8363Z" fill="#2B2BFF"/>
</svg>
