<svg width="180" height="180" viewBox="0 0 180 180" fill="none" xmlns="http://www.w3.org/2000/svg">
<path d="M90 180C40.2945 180 0 139.705 0 90C0 40.2945 40.2945 0 90 0C139.705 0 180 40.2945 180 90C180 139.705 139.705 180 90 180ZM90 19.5652C51.0947 19.5652 19.5652 51.1044 19.5652 90C19.5652 128.896 51.0947 160.435 90 160.435C128.905 160.435 160.435 128.896 160.435 90C160.435 51.1044 128.905 19.5652 90 19.5652ZM107.609 127.663H72.3912V87.6522H50.3805L90 50.3805L129.62 87.6522H107.609V127.663Z" fill="#CCCCFF"/>
</svg>
