<svg width="54" height="50" viewBox="0 0 54 50" fill="none" xmlns="http://www.w3.org/2000/svg">
<path d="M35.0856 11.2041H29.7505V35.2287C29.7505 35.5412 29.4906 35.7969 29.173 35.7969H24.8414C24.5238 35.7969 24.2639 35.5412 24.2639 35.2287V11.2041H18.9144C18.4307 11.2041 18.1636 10.6573 18.4596 10.288L26.5452 0.217982C26.5992 0.150078 26.6682 0.0951619 26.747 0.0573947C26.8258 0.0196275 26.9123 0 27 0C27.0877 0 27.1742 0.0196275 27.253 0.0573947C27.3318 0.0951619 27.4008 0.150078 27.4548 0.217982L35.5404 10.2809C35.8364 10.6573 35.5693 11.2041 35.0856 11.2041ZM0.577538 33.0983H4.90909C5.22674 33.0983 5.48663 33.3539 5.48663 33.6664V44.6028H48.5134V33.6664C48.5134 33.3539 48.7733 33.0983 49.0909 33.0983H53.4225C53.7401 33.0983 54 33.3539 54 33.6664V47.7275C54 48.9845 52.9676 50 51.6898 50H2.31016C1.03235 50 0 48.9845 0 47.7275V33.6664C0 33.3539 0.259892 33.0983 0.577538 33.0983Z" fill="#0000D5"/>
</svg>
